# xmcd
#
# Track frame offsets: 
#        150
#        20753
#        43766
#        67112
#        89893
#        111968
#        133362
#        192567
#        211731
#        228995
#        249968
#
# Disc length: 3582 seconds
#
# Revision: 0
# Processed by: cddbd v1.5.2PL0 Copyright (c) Steve Scherf et al.
# Submitted via: ExactAudioCopy v0.95a5
#
DISCID=a90dfc0b
DTITLE=Taj Mahal - Berlin Jazz Fest  "The Real Thing Revisited"
DYEAR=1996
DGENRE=Blues
TTITLE0=Queen Bee
TTITLE1=Blues Ain't Nothin'
TTITLE2=The Real Thing
TTITLE3=You Rascal You
TTITLE4=Further on Down The Road
TTITLE5=Big-Kneed Gal
TTITLE6=Ain't Gwine to Whistle Dixie Anymo' 
TTITLE7=Diving Duck Blues
TTITLE8=Going Up to the Country, Paint My Mailbox Blue
TTITLE9=John, Ain't It Hard
TTITLE10=She Caught The Katy
EXTD=Taj Mahal (voc,g]\nBob Stewart ((trumpet, flugelhorn, tuba]\nJoe 
EXTD=Daly (valve trombone, tuba]\nEarl McIntyre (bass trombone, tuba]\n
EXTD=John Cleary (keybd]\nJohnny Lee Shell (g]\nBill Rich (b]\nTony Br
EXTD=aunagel (dr)
EXTT0=
EXTT1=
EXTT2=
EXTT3=
EXTT4=
EXTT5=
EXTT6=
EXTT7=
EXTT8=
EXTT9=
EXTT10=
PLAYORDER=
